REM DIRINDEX 1\2\5,1\2\6,1\2\7,1\2\8,1\3\9,1\3\10,1\3\11,1\4\12,1\4\13,1\4\14,1\4\15,1\4\16
REM DIRNAME cjc034,folder01,folder02,folder03,folder04,folder05,folder06,folder07,folder08,folder09,folder10,folder11,folder12,folder13,folder14,folder15
TITLE ""
FILE "1200_sec03_0837_0844.mp3" MP3
  TRACK 01 AUDIO
    TITLE "0:"
    INDEX 01 00:00:00
  TRACK 02 AUDIO
    TITLE "12:cjc034_07017"
    INDEX 01 00:00:17
  TRACK 03 AUDIO
    TITLE "0:"
    INDEX 01 00:01:32
  TRACK 04 AUDIO
    TITLE "13:cjc034_07018"
    INDEX 01 00:01:68
  TRACK 05 AUDIO
    TITLE "0:"
    INDEX 01 00:04:03
  TRACK 06 AUDIO
    TITLE "14:cjc034_07019"
    INDEX 01 00:04:35
  TRACK 07 AUDIO
    TITLE "0:"
    INDEX 01 00:05:50
  TRACK 08 AUDIO
    TITLE "15:cjc034_07020"
    INDEX 01 00:06:08
  TRACK 09 AUDIO
    TITLE "0:"
    INDEX 01 00:09:57
  TRACK 10 AUDIO
    TITLE "12:cjc034_07021"
    INDEX 01 00:11:15
  TRACK 11 AUDIO
    TITLE "0:"
    INDEX 01 00:12:26
  TRACK 12 AUDIO
    TITLE "13:cjc034_07022"
    INDEX 01 00:12:60
  TRACK 13 AUDIO
    TITLE "0:"
    INDEX 01 00:15:05
  TRACK 14 AUDIO
    TITLE "14:cjc034_07023"
    INDEX 01 00:15:36
  TRACK 15 AUDIO
    TITLE "0:"
    INDEX 01 00:16:44
  TRACK 16 AUDIO
    TITLE "15:cjc034_07024"
    INDEX 01 00:17:06
  TRACK 17 AUDIO
    TITLE "0:"
    INDEX 01 00:20:57
  TRACK 18 AUDIO
    TITLE "12:cjc034_07025"
    INDEX 01 00:22:25
  TRACK 19 AUDIO
    TITLE "0:"
    INDEX 01 00:23:36
  TRACK 20 AUDIO
    TITLE "13:cjc034_07026"
    INDEX 01 00:23:69
  TRACK 21 AUDIO
    TITLE "0:"
    INDEX 01 00:24:63
  TRACK 22 AUDIO
    TITLE "14:cjc034_07027"
    INDEX 01 00:25:21
  TRACK 23 AUDIO
    TITLE "0:"
    INDEX 01 00:26:34
  TRACK 24 AUDIO
    TITLE "15:cjc034_07028"
    INDEX 01 00:26:67
  TRACK 25 AUDIO
    TITLE "0:"
    INDEX 01 00:30:26
  TRACK 26 AUDIO
    TITLE "12:cjc034_07029"
    INDEX 01 00:31:61
  TRACK 27 AUDIO
    TITLE "0:"
    INDEX 01 00:33:21
  TRACK 28 AUDIO
    TITLE "13:cjc034_07030"
    INDEX 01 00:33:52
  TRACK 29 AUDIO
    TITLE "0:"
    INDEX 01 00:36:44
  TRACK 30 AUDIO
    TITLE "14:cjc034_07031"
    INDEX 01 00:37:05
  TRACK 31 AUDIO
    TITLE "0:"
    INDEX 01 00:38:39
  TRACK 32 AUDIO
    TITLE "15:cjc034_07032"
    INDEX 01 00:38:71
  TRACK 33 AUDIO
    TITLE "0:"
    INDEX 01 00:43:42
  TRACK 34 AUDIO
    TITLE "12:cjc034_07033"
    INDEX 01 00:44:73
  TRACK 35 AUDIO
    TITLE "0:"
    INDEX 01 00:46:19
  TRACK 36 AUDIO
    TITLE "13:cjc034_07034"
    INDEX 01 00:46:49
  TRACK 37 AUDIO
    TITLE "0:"
    INDEX 01 00:48:48
  TRACK 38 AUDIO
    TITLE "14:cjc034_07035"
    INDEX 01 00:49:04
  TRACK 39 AUDIO
    TITLE "0:"
    INDEX 01 00:50:23
  TRACK 40 AUDIO
    TITLE "15:cjc034_07036"
    INDEX 01 00:50:58
  TRACK 41 AUDIO
    TITLE "0:"
    INDEX 01 00:54:52
  TRACK 42 AUDIO
    TITLE "12:cjc034_07037"
    INDEX 01 00:56:10
  TRACK 43 AUDIO
    TITLE "0:"
    INDEX 01 00:57:35
  TRACK 44 AUDIO
    TITLE "13:cjc034_07038"
    INDEX 01 00:57:66
  TRACK 45 AUDIO
    TITLE "0:"
    INDEX 01 00:59:69
  TRACK 46 AUDIO
    TITLE "14:cjc034_07039"
    INDEX 01 01:00:27
  TRACK 47 AUDIO
    TITLE "0:"
    INDEX 01 01:01:50
  TRACK 48 AUDIO
    TITLE "15:cjc034_07040"
    INDEX 01 01:02:10
  TRACK 49 AUDIO
    TITLE "0:"
    INDEX 01 01:05:54
  TRACK 50 AUDIO
    TITLE "12:cjc034_07041"
    INDEX 01 01:07:14
  TRACK 51 AUDIO
    TITLE "0:"
    INDEX 01 01:08:36
  TRACK 52 AUDIO
    TITLE "13:cjc034_07042"
    INDEX 01 01:08:72
  TRACK 53 AUDIO
    TITLE "0:"
    INDEX 01 01:11:43
  TRACK 54 AUDIO
    TITLE "14:cjc034_07043"
    INDEX 01 01:12:03
  TRACK 55 AUDIO
    TITLE "0:"
    INDEX 01 01:13:26
  TRACK 56 AUDIO
    TITLE "15:cjc034_07044"
    INDEX 01 01:13:61
  TRACK 57 AUDIO
    TITLE "0:"
    INDEX 01 01:16:67
  TRACK 58 AUDIO
    TITLE "12:cjc034_07045"
    INDEX 01 01:18:25
  TRACK 59 AUDIO
    TITLE "0:"
    INDEX 01 01:19:48
  TRACK 60 AUDIO
    TITLE "13:cjc034_07046"
    INDEX 01 01:20:06
  TRACK 61 AUDIO
    TITLE "0:"
    INDEX 01 01:21:23
  TRACK 62 AUDIO
    TITLE "14:cjc034_07047"
    INDEX 01 01:21:57
  TRACK 63 AUDIO
    TITLE "0:"
    INDEX 01 01:23:07
  TRACK 64 AUDIO
    TITLE "15:cjc034_07048"
    INDEX 01 01:23:38
  TRACK 65 AUDIO
    TITLE "0:"
    INDEX 01 01:27:44
